<svg width="126" height="28" viewBox="0 0 126 28" fill="none" xmlns="http://www.w3.org/2000/svg">
<path d="M40.1555 24.9642H43.4236C43.8547 24.9642 44.2041 24.6138 44.2041 24.1814V17.469C44.2041 17.0366 44.5535 16.6862 44.9846 16.6862H52.2331C52.6641 16.6862 53.0135 16.3357 53.0135 15.9034V12.919C53.0135 12.4866 52.6641 12.1362 52.2331 12.1362H44.9846C44.5535 12.1362 44.2041 11.7857 44.2041 11.3534V8.63315C44.2041 8.20082 44.5535 7.85035 44.9846 7.85035H53.433C53.8641 7.85035 54.2135 7.49988 54.2135 7.06756V4.05379C54.2135 3.62147 53.8641 3.271 53.433 3.271H40.1555C39.7244 3.271 39.375 3.62147 39.375 4.05379V24.1814C39.375 24.6138 39.7244 24.9642 40.1555 24.9642Z" fill="#4D14CD"/>
<path fill-rule="evenodd" clip-rule="evenodd" d="M63.9888 8.4668C68.5837 8.4668 72.0958 11.4316 72.0958 16.5394C72.0958 17.1852 72.0372 17.831 71.9494 18.4768H60.1547C60.6523 20.2381 62.0278 21.5003 64.5156 21.5003C66.2423 21.5003 68.2325 20.8252 69.5203 19.9445L71.3348 23.0855C69.7837 24.2597 67.296 25.3165 64.3107 25.3165C58.3109 25.3165 55.5305 21.2655 55.5305 16.8916C55.5305 12.1068 58.8963 8.4668 63.9888 8.4668ZM67.6764 15.1891C67.2667 13.3691 65.9204 12.1949 63.9887 12.1949C62.1156 12.1949 60.6523 13.3103 60.1255 15.1891H67.6764Z" fill="#4D14CD"/>
<path d="M79.3833 24.1812V3.4078C79.3833 2.97547 79.0339 2.625 78.6028 2.625H75.5688C75.1378 2.625 74.7883 2.97547 74.7883 3.4078V24.1812C74.7883 24.6136 75.1378 24.964 75.5688 24.964H78.6028C79.0339 24.964 79.3833 24.6136 79.3833 24.1812Z" fill="#4D14CD"/>
<path d="M87.4905 24.1812V3.4078C87.4905 2.97547 87.141 2.625 86.71 2.625H83.676C83.2449 2.625 82.8955 2.97547 82.8955 3.4078V24.1812C82.8955 24.6136 83.2449 24.964 83.676 24.964H86.71C87.141 24.964 87.4905 24.6136 87.4905 24.1812Z" fill="#4D14CD"/>
<path fill-rule="evenodd" clip-rule="evenodd" d="M103.06 10.5803V9.66056C103.06 9.22823 103.41 8.87776 103.841 8.87776H106.612C107.043 8.87776 107.392 9.22823 107.392 9.66056V24.1814C107.392 24.6137 107.043 24.9642 106.612 24.9642H103.841C103.41 24.9642 103.06 24.6137 103.06 24.1814V23.3203C101.89 24.4945 100.309 25.3752 98.1143 25.3752C93.4901 25.3752 90.2122 21.6178 90.2122 16.8329C90.2122 12.0187 93.5779 8.4668 98.1143 8.4668C100.28 8.4668 101.89 9.3768 103.06 10.5803ZM94.8071 16.8916C94.8071 19.24 96.5046 21.1774 98.9045 21.1774C101.334 21.1774 103.06 19.2107 103.06 16.8916C103.06 14.602 101.334 12.6645 98.9045 12.6645C96.4753 12.6645 94.8071 14.602 94.8071 16.8916Z" fill="#4D14CD"/>
<path d="M117.523 19.8657L123.749 12.3236C123.865 12.1832 123.928 12.0067 123.928 11.8244V9.68953C123.928 9.25721 123.579 8.90674 123.147 8.90674H111.275C110.844 8.90674 110.494 9.25721 110.494 9.68953V11.9401C110.494 12.3724 110.844 12.7229 111.275 12.7229H116.097C116.528 12.7229 116.878 13.0733 116.878 13.5057C116.878 13.691 116.812 13.8703 116.693 14.0117L110.328 21.5451C110.209 21.6865 110.143 21.8659 110.143 22.0512V24.181C110.143 24.6134 110.492 24.9638 110.924 24.9638H123.469C123.9 24.9638 124.25 24.6134 124.25 24.181V21.9305C124.25 21.4982 123.9 21.1477 123.469 21.1477H118.124C117.693 21.1477 117.344 20.7972 117.344 20.3649C117.344 20.1826 117.407 20.0061 117.523 19.8657Z" fill="#4D14CD"/>
<path d="M10.4455 0.875H18.3358C18.8433 0.875 19.2548 1.28613 19.2548 1.79329V9.1396C19.2548 9.64675 18.8433 10.0579 18.3358 10.0579H10.9839C10.4763 10.0579 10.0649 10.469 10.0649 10.9762V18.8604C10.0649 19.1039 9.96806 19.3375 9.79571 19.5097L2.44381 26.856C2.08492 27.2147 1.50305 27.2147 1.14417 26.856C0.971822 26.6838 0.875 26.4503 0.875 26.2067V19.2408V10.4383C0.875 10.1947 0.971822 9.96114 1.14417 9.78892L9.79571 1.14396C9.96806 0.971748 10.2018 0.875 10.4455 0.875Z" fill="#4D14CD"/>
<path d="M17.2667 14.8638C16.4988 15.9552 15.8749 16.7407 15.3949 17.2203C14.9149 17.6999 14.1287 18.3235 13.0363 19.0911L13.0363 19.0911C12.9534 19.1496 12.9336 19.2642 12.9922 19.347C13.0044 19.3643 13.0194 19.3793 13.0367 19.3914C14.1279 20.1572 14.9139 20.7805 15.3949 21.2612C15.8759 21.7418 16.4997 22.5272 17.2663 23.6173L17.2663 23.6173C17.3247 23.7003 17.4394 23.7203 17.5224 23.6619C17.5398 23.6497 17.5549 23.6346 17.5671 23.6173C18.334 22.5268 18.9578 21.7414 19.4384 21.2612C19.9192 20.7808 20.7054 20.1573 21.7972 19.3906L21.7972 19.3906C21.8801 19.332 21.8998 19.2174 21.8412 19.1346C21.829 19.1174 21.8139 19.1024 21.7966 19.0902C20.7051 18.3241 19.9192 17.7007 19.4384 17.2203C18.9577 16.7399 18.3339 15.9547 17.567 14.8645L17.5673 14.8643C17.509 14.7813 17.3944 14.7612 17.3113 14.8195C17.294 14.8316 17.2789 14.8466 17.2668 14.8639L17.2667 14.8638Z" fill="#4D14CD"/>
</svg>
